<svg width="211" height="43" viewBox="0 0 211 43" fill="none" xmlns="http://www.w3.org/2000/svg">
<mask id="path-1-outside-1_2356_143" maskUnits="userSpaceOnUse" x="0" y="12.7241" width="43" height="18" fill="black">
<rect fill="white" y="12.7241" width="43" height="18"/>
<path d="M40.8809 13.7241C41.4989 13.7242 41.9999 14.2252 42 14.8433V28.1567C41.9999 28.7748 41.4989 29.2758 40.8809 29.2759H2.11914C1.50109 29.2758 1.00008 28.7748 1 28.1567V14.8433C1.00006 14.2252 1.50108 13.7242 2.11914 13.7241H40.8809ZM3.88672 16.6108V26.3892H39.1133V16.6108H3.88672Z"/>
</mask>
<path d="M40.8809 13.7241C41.4989 13.7242 41.9999 14.2252 42 14.8433V28.1567C41.9999 28.7748 41.4989 29.2758 40.8809 29.2759H2.11914C1.50109 29.2758 1.00008 28.7748 1 28.1567V14.8433C1.00006 14.2252 1.50108 13.7242 2.11914 13.7241H40.8809ZM3.88672 16.6108V26.3892H39.1133V16.6108H3.88672Z" fill="#E5F0EE"/>
<path d="M40.8809 13.7241L40.881 12.7241H40.8809V13.7241ZM42 14.8433L43 14.8433L43 14.8432L42 14.8433ZM42 28.1567L43 28.1569V28.1567H42ZM40.8809 29.2759L40.8809 30.2759L40.881 30.2759L40.8809 29.2759ZM2.11914 29.2759L2.11904 30.2759H2.11914V29.2759ZM1 28.1567L-8.21689e-09 28.1567L8.21689e-09 28.1569L1 28.1567ZM1 14.8433L0 14.8432V14.8433H1ZM2.11914 13.7241L2.11914 12.7241L2.11904 12.7241L2.11914 13.7241ZM3.88672 16.6108V15.6108H2.88672V16.6108H3.88672ZM3.88672 26.3892H2.88672V27.3892H3.88672V26.3892ZM39.1133 26.3892V27.3892H40.1133V26.3892H39.1133ZM39.1133 16.6108H40.1133V15.6108H39.1133V16.6108ZM40.8809 13.7241L40.8808 14.7241C40.9466 14.7241 41 14.7775 41 14.8434L42 14.8433L43 14.8432C42.9999 13.6729 42.0512 12.7242 40.881 12.7241L40.8809 13.7241ZM42 14.8433H41V28.1567H42H43V14.8433H42ZM42 28.1567L41 28.1566C41 28.2225 40.9466 28.2759 40.8808 28.2759L40.8809 29.2759L40.881 30.2759C42.0512 30.2758 42.9999 29.3271 43 28.1569L42 28.1567ZM40.8809 29.2759V28.2759H2.11914V29.2759V30.2759H40.8809V29.2759ZM2.11914 29.2759L2.11924 28.2759C2.05343 28.2759 2.00001 28.2225 2 28.1566L1 28.1567L8.21689e-09 28.1569C0.000150021 29.3271 0.948757 30.2758 2.11904 30.2759L2.11914 29.2759ZM1 28.1567H2V14.8433H1H0V28.1567H1ZM1 14.8433L2 14.8434C2.00001 14.7775 2.05339 14.7241 2.11924 14.7241L2.11914 13.7241L2.11904 12.7241C0.948777 12.7242 0.000114661 13.6729 4.79954e-09 14.8432L1 14.8433ZM2.11914 13.7241V14.7241H40.8809V13.7241V12.7241H2.11914V13.7241ZM3.88672 16.6108H2.88672V26.3892H3.88672H4.88672V16.6108H3.88672ZM3.88672 26.3892V27.3892H39.1133V26.3892V25.3892H3.88672V26.3892ZM39.1133 26.3892H40.1133V16.6108H39.1133H38.1133V26.3892H39.1133ZM39.1133 16.6108V15.6108H3.88672V16.6108V17.6108H39.1133V16.6108Z" fill="#1D7A57" mask="url(#path-1-outside-1_2356_143)"/>
<mask id="path-3-outside-2_2356_143" maskUnits="userSpaceOnUse" x="12.7241" y="0" width="18" height="43" fill="black">
<rect fill="white" x="12.7241" width="18" height="43"/>
<path d="M13.7241 2.11914C13.7242 1.50108 14.2252 1.00006 14.8433 1H28.1567C28.7748 1.00008 29.2758 1.50109 29.2759 2.11914V40.8809C29.2758 41.4989 28.7748 41.9999 28.1567 42H14.8433C14.2252 41.9999 13.7242 41.4989 13.7241 40.8809L13.7241 2.11914ZM16.6108 39.1133H26.3892V3.88672H16.6108L16.6108 39.1133Z"/>
</mask>
<path d="M13.7241 2.11914C13.7242 1.50108 14.2252 1.00006 14.8433 1H28.1567C28.7748 1.00008 29.2758 1.50109 29.2759 2.11914V40.8809C29.2758 41.4989 28.7748 41.9999 28.1567 42H14.8433C14.2252 41.9999 13.7242 41.4989 13.7241 40.8809L13.7241 2.11914ZM16.6108 39.1133H26.3892V3.88672H16.6108L16.6108 39.1133Z" fill="#E5F0EE"/>
<path d="M13.7241 2.11914L12.7241 2.11904V2.11914H13.7241ZM14.8433 1L14.8433 -4.81938e-09L14.8432 4.81938e-09L14.8433 1ZM28.1567 1L28.1569 0H28.1567V1ZM29.2759 2.11914L30.2759 2.11914L30.2759 2.11904L29.2759 2.11914ZM29.2759 40.8809L30.2759 40.881V40.8809H29.2759ZM28.1567 42L28.1567 43L28.1569 43L28.1567 42ZM14.8433 42L14.8432 43H14.8433V42ZM13.7241 40.8809L12.7241 40.8809L12.7241 40.881L13.7241 40.8809ZM16.6108 39.1133H15.6108V40.1133H16.6108V39.1133ZM26.3892 39.1133V40.1133H27.3892V39.1133H26.3892ZM26.3892 3.88672H27.3892V2.88672H26.3892V3.88672ZM16.6108 3.88672V2.88672H15.6108V3.88672H16.6108ZM13.7241 2.11914L14.7241 2.11924C14.7241 2.05339 14.7775 2.00001 14.8434 2L14.8433 1L14.8432 4.81938e-09C13.6729 0.000114898 12.7242 0.948775 12.7241 2.11904L13.7241 2.11914ZM14.8433 1V2H28.1567V1V0H14.8433L14.8433 1ZM28.1567 1L28.1566 2C28.2225 2.00001 28.2759 2.05343 28.2759 2.11924L29.2759 2.11914L30.2759 2.11904C30.2758 0.948759 29.3271 0.000149784 28.1569 8.19099e-09L28.1567 1ZM29.2759 2.11914H28.2759V40.8809H29.2759H30.2759L30.2759 2.11914H29.2759ZM29.2759 40.8809L28.2759 40.8808C28.2759 40.9466 28.2225 41 28.1566 41L28.1567 42L28.1569 43C29.3271 42.9998 30.2758 42.0512 30.2759 40.881L29.2759 40.8809ZM28.1567 42V41H14.8433V42V43H28.1567V42ZM14.8433 42L14.8434 41C14.7775 41 14.7241 40.9466 14.7241 40.8808L13.7241 40.8809L12.7241 40.881C12.7242 42.0512 13.6729 42.9999 14.8432 43L14.8433 42ZM13.7241 40.8809H14.7241L14.7241 2.11914H13.7241H12.7241L12.7241 40.8809H13.7241ZM16.6108 39.1133V40.1133H26.3892V39.1133V38.1133H16.6108V39.1133ZM26.3892 39.1133H27.3892V3.88672H26.3892H25.3892V39.1133H26.3892ZM26.3892 3.88672V2.88672H16.6108V3.88672V4.88672H26.3892V3.88672ZM16.6108 3.88672H15.6108L15.6108 39.1133H16.6108H17.6108L17.6108 3.88672H16.6108Z" fill="#1D7A57" mask="url(#path-3-outside-2_2356_143)"/>
<mask id="path-5-outside-3_2356_143" maskUnits="userSpaceOnUse" x="25" y="12.74" width="6" height="5" fill="black">
<rect fill="white" x="25" y="12.74" width="6" height="5"/>
<path d="M25 13.74H31V16.6265H25V13.74Z"/>
</mask>
<path d="M25 13.74H31V16.6265H25V13.74Z" fill="#E5F0EE"/>
<path d="M25 13.74V14.74H31V13.74V12.74H25V13.74ZM31 16.6265V15.6265H25V16.6265V17.6265H31V16.6265Z" fill="#1D7A57" mask="url(#path-5-outside-3_2356_143)"/>
<mask id="path-7-outside-4_2356_143" maskUnits="userSpaceOnUse" x="12" y="25.3999" width="6" height="5" fill="black">
<rect fill="white" x="12" y="25.3999" width="6" height="5"/>
<path d="M12 26.3999H18V29.2864H12V26.3999Z"/>
</mask>
<path d="M12 26.3999H18V29.2864H12V26.3999Z" fill="#E5F0EE"/>
<path d="M12 26.3999V27.3999H18V26.3999V25.3999H12V26.3999ZM18 29.2864V28.2864H12V29.2864V30.2864H18V29.2864Z" fill="#1D7A57" mask="url(#path-7-outside-4_2356_143)"/>
<path d="M46.1212 30.2441V13.253H49.7769L55.4149 27.7727H55.5436L61.1558 13.253H64.6828V30.2441H62.443L62.5975 15.6472H62.3916L56.5476 30.2441H54.2306L48.4382 15.6214H48.2323L48.3867 30.2441H46.1212ZM74.6349 30.5788C73.588 30.5788 72.6612 30.4243 71.8546 30.1154C71.0651 29.7893 70.3957 29.3259 69.8465 28.7252C69.2973 28.1245 68.8854 27.4123 68.6108 26.5885C68.3362 25.7647 68.1989 24.8379 68.1989 23.8081C68.1989 22.7612 68.3362 21.8 68.6108 20.9247C68.8854 20.0494 69.2887 19.2857 69.8208 18.6335C70.3528 17.9813 71.005 17.4836 71.7773 17.1403C72.5496 16.7799 73.4335 16.5997 74.429 16.5997C75.3043 16.5997 76.1023 16.7456 76.8232 17.0374C77.544 17.3291 78.1533 17.784 78.651 18.4018C79.1659 19.0025 79.5521 19.7663 79.8095 20.693C80.067 21.6027 80.1699 22.6753 80.1184 23.9111L69.6663 23.9883V22.3922L78.7025 22.3149L77.9044 23.3962C77.9903 22.3149 77.8873 21.4225 77.5955 20.7188C77.3037 20.0151 76.8833 19.4831 76.334 19.1227C75.802 18.7622 75.167 18.582 74.429 18.582C73.6395 18.582 72.9444 18.788 72.3437 19.1999C71.743 19.6118 71.2796 20.2039 70.9535 20.9762C70.6446 21.7486 70.4901 22.6839 70.4901 23.7823C70.4901 25.3613 70.8419 26.5713 71.5456 27.4123C72.2493 28.2361 73.2962 28.648 74.6864 28.648C75.2185 28.648 75.6819 28.5879 76.0766 28.4678C76.4885 28.3305 76.8318 28.1503 77.1064 27.9272C77.3981 27.6869 77.6298 27.4123 77.8015 27.1033C77.9903 26.7944 78.1361 26.4597 78.2391 26.0993L80.2986 26.5885C80.1442 27.2063 79.9039 27.7641 79.5778 28.2618C79.2689 28.7424 78.8741 29.1543 78.3936 29.4976C77.9302 29.8408 77.3896 30.1068 76.7717 30.2956C76.1538 30.4844 75.4416 30.5788 74.6349 30.5788ZM88.2371 30.5788C87.1044 30.5788 86.1347 30.2785 85.328 29.6778C84.5214 29.0771 83.9035 28.2533 83.4744 27.2063C83.0625 26.1594 82.8566 24.958 82.8566 23.6021C82.8566 22.2463 83.0625 21.0449 83.4744 19.998C83.8863 18.951 84.487 18.1272 85.2765 17.5265C86.066 16.9258 87.0357 16.6255 88.1856 16.6255C89.1296 16.6255 89.9019 16.8228 90.5026 17.2176C91.1033 17.6123 91.5839 18.1272 91.9443 18.7622C92.3219 19.3801 92.5965 20.058 92.7681 20.796H93.2315C93.1457 20.2983 93.0684 19.7834 92.9998 19.2514C92.9311 18.7022 92.8711 18.1701 92.8196 17.6552C92.7681 17.1232 92.7423 16.6512 92.7423 16.2393V12.2232H95.1108V23.6794V30.2441H92.9998L93.1285 26.64H92.7166C92.5106 27.4123 92.2189 28.0988 91.8413 28.6995C91.4637 29.283 90.9832 29.7464 90.3996 30.0897C89.8161 30.4158 89.0952 30.5788 88.2371 30.5788ZM88.7777 28.5193C89.3956 28.5193 89.9534 28.3734 90.4511 28.0816C90.9488 27.7899 91.3693 27.4123 91.7126 26.9489C92.0558 26.4683 92.3133 25.9534 92.4849 25.4042C92.6737 24.855 92.7681 24.323 92.7681 23.8081V23.4992C92.7681 23.1387 92.7166 22.7526 92.6136 22.3407C92.5106 21.9116 92.3562 21.4825 92.1502 21.0535C91.9614 20.6244 91.704 20.2297 91.3779 19.8692C91.069 19.4917 90.7 19.1999 90.2709 18.9939C89.8418 18.7708 89.3613 18.6593 88.8292 18.6593C88.0569 18.6593 87.4047 18.8824 86.8727 19.3286C86.3578 19.7577 85.963 20.3498 85.6884 21.105C85.431 21.8601 85.3023 22.7097 85.3023 23.6536C85.3023 24.6319 85.4396 25.49 85.7142 26.228C85.9888 26.9489 86.3835 27.5153 86.8984 27.9272C87.4305 28.3219 88.0569 28.5193 88.7777 28.5193ZM99.215 30.2441V16.9344H101.558V30.2441H99.215ZM100.399 14.6174C99.85 14.6174 99.4381 14.5059 99.1635 14.2827C98.8889 14.0596 98.7516 13.725 98.7516 13.2787C98.7516 12.8325 98.8889 12.4978 99.1635 12.2747C99.4381 12.0516 99.8414 11.94 100.373 11.94C100.923 11.94 101.335 12.0516 101.609 12.2747C101.884 12.4978 102.021 12.8325 102.021 13.2787C102.021 13.7078 101.884 14.0425 101.609 14.2827C101.335 14.5059 100.931 14.6174 100.399 14.6174ZM105.831 30.2441V13.253H108.199V30.2441H105.831ZM106.603 30.2441V28.1846H116.128V30.2441H106.603ZM118.649 30.2441V16.9344H120.992V30.2441H118.649ZM119.833 14.6174C119.284 14.6174 118.872 14.5059 118.597 14.2827C118.323 14.0596 118.185 13.725 118.185 13.2787C118.185 12.8325 118.323 12.4978 118.597 12.2747C118.872 12.0516 119.275 11.94 119.807 11.94C120.357 11.94 120.768 12.0516 121.043 12.2747C121.318 12.4978 121.455 12.8325 121.455 13.2787C121.455 13.7078 121.318 14.0425 121.043 14.2827C120.768 14.5059 120.365 14.6174 119.833 14.6174ZM125.059 30.2441V21.9803V16.9344H127.17L126.938 21.1564H127.376C127.616 20.1095 127.934 19.2514 128.329 18.582C128.741 17.9127 129.255 17.415 129.873 17.0889C130.491 16.7628 131.212 16.5997 132.036 16.5997C133.512 16.5997 134.627 17.1318 135.383 18.1959C136.155 19.2428 136.541 20.8132 136.541 22.907V30.2441H134.173V23.113C134.173 21.6027 133.932 20.4871 133.452 19.7663C132.988 19.0454 132.302 18.685 131.392 18.685C130.568 18.685 129.865 18.9424 129.281 19.4573C128.715 19.9722 128.269 20.6501 127.942 21.4911C127.616 22.3321 127.436 23.2417 127.402 24.22V30.2441H125.059ZM140.395 30.2441V12.2232H142.738V22.4951C143.407 22.1347 144.051 21.7228 144.669 21.2594C145.286 20.796 145.861 20.3069 146.393 19.792C146.925 19.2771 147.38 18.7708 147.758 18.2731C148.153 17.7754 148.453 17.3291 148.659 16.9344H151.414C151.087 17.5694 150.667 18.213 150.152 18.8652C149.654 19.5002 149.097 20.1009 148.479 20.6673C147.861 21.2165 147.209 21.6885 146.522 22.0832C145.853 22.478 145.166 22.7612 144.463 22.9328V23.2417C145.321 23.1731 146.076 23.276 146.728 23.5507C147.38 23.8253 147.955 24.22 148.453 24.7349C148.968 25.2498 149.44 25.8419 149.869 26.5112C150.298 27.1634 150.71 27.8585 151.105 28.5965L151.903 30.2441H149.251L148.685 29.0599C148.221 28.1846 147.749 27.3951 147.269 26.6914C146.788 25.9706 146.239 25.4042 145.621 24.9923C145.003 24.5804 144.265 24.3745 143.407 24.3745H142.738V30.2441H140.395ZM162.402 25.0438V23.0358H166.572C168.203 23.0358 169.43 22.7268 170.254 22.109C171.078 21.474 171.49 20.4613 171.49 19.0712C171.49 17.784 171.103 16.8228 170.331 16.1878C169.576 15.5356 168.409 15.2095 166.83 15.2095H162.402V13.253H166.881C167.997 13.253 168.984 13.3817 169.842 13.6391C170.717 13.8966 171.455 14.2742 172.056 14.7719C172.657 15.2696 173.111 15.8875 173.42 16.6255C173.746 17.3463 173.91 18.1873 173.91 19.1484C173.91 20.4184 173.618 21.4911 173.034 22.3664C172.451 23.2417 171.593 23.9111 170.46 24.3745C169.327 24.8207 167.937 25.0438 166.289 25.0438H162.402ZM161.14 30.2441V13.253H163.509V30.2441H161.14ZM176.925 30.2441V12.2232H179.267V30.2441H176.925ZM187.584 30.5788C186.108 30.5788 184.992 30.0639 184.237 29.0342C183.482 28.0044 183.104 26.4683 183.104 24.426V16.9344H185.473V24.22C185.473 25.6617 185.696 26.7343 186.142 27.438C186.588 28.1417 187.292 28.4935 188.253 28.4935C188.785 28.4935 189.257 28.3648 189.669 28.1074C190.098 27.8499 190.476 27.4809 190.802 27.0004C191.128 26.5198 191.394 25.9534 191.6 25.3013C191.806 24.6319 191.943 23.9111 192.012 23.1387V16.9344H194.355V24.6834V30.2441H192.269L192.475 25.9706H192.089C191.866 27.0347 191.549 27.91 191.137 28.5965C190.742 29.2659 190.244 29.7636 189.643 30.0897C189.043 30.4158 188.356 30.5788 187.584 30.5788ZM203.363 30.5788C202.436 30.5788 201.612 30.4758 200.891 30.2699C200.171 30.0811 199.57 29.8065 199.089 29.4461C198.609 29.0685 198.24 28.6223 197.982 28.1074C197.725 27.5925 197.588 27.0261 197.57 26.4083L199.553 25.8934C199.518 26.4597 199.656 26.9575 199.965 27.3865C200.291 27.7984 200.746 28.116 201.329 28.3391C201.93 28.5622 202.651 28.6737 203.492 28.6737C204.504 28.6737 205.285 28.5021 205.834 28.1589C206.401 27.8156 206.684 27.3436 206.684 26.7429C206.684 26.2624 206.529 25.8934 206.221 25.6359C205.912 25.3613 205.483 25.1468 204.933 24.9923C204.401 24.8207 203.766 24.6662 203.028 24.5289C202.41 24.3916 201.793 24.2372 201.175 24.0655C200.557 23.8939 199.99 23.6708 199.476 23.3962C198.978 23.1044 198.574 22.7268 198.266 22.2634C197.957 21.8 197.802 21.2251 197.802 20.5386C197.802 19.7319 198.017 19.0368 198.446 18.4533C198.875 17.8698 199.484 17.415 200.274 17.0889C201.063 16.7628 202.007 16.5997 203.105 16.5997C204.204 16.5997 205.139 16.7713 205.912 17.1146C206.684 17.4407 207.293 17.9041 207.739 18.5048C208.186 19.1055 208.435 19.8092 208.486 20.6158L206.452 21.1307C206.435 20.5643 206.281 20.0838 205.989 19.689C205.714 19.2943 205.319 19.0025 204.805 18.8137C204.29 18.6078 203.689 18.5048 203.002 18.5048C202.093 18.5048 201.372 18.6764 200.84 19.0197C200.308 19.3629 200.042 19.8349 200.042 20.4356C200.042 20.8818 200.196 21.2423 200.505 21.5169C200.831 21.7915 201.269 22.006 201.818 22.1605C202.367 22.3149 202.977 22.4694 203.646 22.6239C204.333 22.7612 204.985 22.9156 205.603 23.0873C206.238 23.2589 206.804 23.482 207.302 23.7566C207.799 24.0312 208.194 24.4002 208.486 24.8636C208.778 25.3098 208.924 25.8848 208.924 26.5885C208.924 27.4638 208.692 28.2018 208.229 28.8025C207.765 29.386 207.113 29.8322 206.272 30.1412C205.448 30.4329 204.478 30.5788 203.363 30.5788Z" fill="white"/>
</svg>
